<?xml version="1.0"?><svg version="1.2" baseProfile="tiny-ps" viewBox="0 0 300 300" xmlns="http://www.w3.org/2000/svg" xmlns:xlink="http://www.w3.org/1999/xlink"><title>AIcend</title><g><g fill="#29c2f3" transform="matrix(.1 0 0 -.1 0 300)"><path d="M0 1500V0h3000v3000H0V1500z"/></g><g fill="#24a8d4" transform="matrix(.1 0 0 -.1 0 300)"><path d="M2470 2715v-95h245l-518-517-518-517-242 242-242 242h-88l-547-546L12 978l-5-26-5-26 8-22c5-12 19-32 31-43l23-21h70l195 194c108 106 338 333 511 504l315 311 240-238 240-239 22-6 21-7 31 13 31 13 540 540 540 539v-194h180v540h-530v-95zm-358-107c-18-18-15-29 19-64l31-32-23-12c-13-7-32-22-41-34l-18-21v-72l23-34c12-18 38-44 56-56l34-23h65l31 25c16 14 33 35 36 45l6 20h30l6 16 6 16-119 119c-65 65-121 119-124 119s-11-5-18-12zm124-165c12-8 29-28 37-45l15-30-5-19c-3-11-14-24-25-30l-20-11-23 6c-12 3-36 20-54 38l-31 32v55l22 15 22 16 21-6c11-4 30-13 41-21zm-289-128c-15-14-27-33-27-41v-15l-17-6c-10-3-24-11-31-16l-13-10 92-93 93-93 13 11c21 17 16 28-47 94l-60 62v42l20 20c11 11 25 20 31 20s42-30 80-67l70-67 16 10c9 6 18 15 20 20l3 10-74 72-74 72h-67l-28-25zm293-640-555-555-275 275c-151 151-279 275-283 275s-259-251-567-557L0 555V0h3000v2025l-103 103-102 102-555-555zm-930-300 174-174-19-21-19-21-178 178-177 177 16 18c9 10 19 18 22 18s85-79 181-175zm-142-176 222-93-23-24-24-23-59 27c-32 14-66 30-75 35l-17 8-76-75c-42-42-76-81-76-87s14-41 32-79l31-69-21-21-21-21-31 69c-16 38-66 148-109 244l-78 175 24 26 25 27 26-13c15-7 127-55 250-106zm-268 57c0-2 25-56 56-121l57-117 63 63c35 35 64 65 64 66 0 2-30 17-67 34-38 17-90 42-116 55-49 24-57 27-57 20zm872 880c-13-7-32-26-43-42l-19-29v-68l21-33 20-33 33-20 33-21h75l39 39 39 39v38c0 22-4 46-10 54l-9 14-18-17-19-17 4-34 4-34-23-16c-26-18-57-20-79-6l-15 9 64 65 64 65-13 16c-34 42-104 56-148 31zm82-43 6-7-41-42-42-43-9 5c-4 3-8 17-8 31v26l17 19 16 18h27c15 0 30-3 34-7zm-258-132c-38-25-55-57-56-100v-34l26-34c15-19 40-43 58-54l31-19h65l37 34 38 34v82l-16 15-15 15-18-13-17-13 12-26 12-27-17-26-16-25h-57l-36 37-37 36v54l19 17 20 18 30-7 30-6 10 20 11 20-19 11c-29 15-63 12-95-9z"/></g><g fill="#1d87ae" transform="matrix(.1 0 0 -.1 0 300)"><path d="m2472 2713 3-88 118-5 117-5-515-515-515-515-243 243-243 242h-78l-276-273c-151-151-400-397-553-548L10 975v-77l29-29 29-29h22c11 0 33 6 48 14s247 235 517 505c269 270 494 491 498 491 5 0 114-106 243-235l235-235 24-6c14-3 36-3 50 0l24 6 543 539 543 539 3-94 3-94h179v530h-531l3-87zm-362-108-13-16 36-37c42-43 45-52 18-52h-19l-27-32-27-32 5-38 5-39 26-33 26-34 44-17 45-17 38 18 38 19 10 31 10 31 11-4c6-2 16 2 22 10l11 13-123 123-123 122-13-16zm141-171c15-15 30-37 34-51l6-25-16-24-15-24h-59l-36 35-35 36v68l18 11 17 10 30-5 29-5 27-26zm-300-119-30-26-3-22-3-22h-12c-7 0-18-6-25-13l-12-12 87-87 87-88 17 18 17 17-62 63-62 63v51l18 16c10 10 25 17 33 17h15l68-66 67-67 17 17 17 17-76 74-76 75h-51l-31-25zm284-645-550-550-277 277-278 278-565-565L0 545V0h3000v2025l-98 98c-53 53-102 97-107 97-6 0-258-247-560-550zm-928-282c95-95 173-178 173-184s-8-18-18-27l-18-16-179 179-179 179 19 21c10 11 21 20 24 20s83-78 178-172zm-190-164c125-53 239-100 252-106l25-9-26-26-26-26-77 33-76 34-77-77-76-77 32-65c17-36 32-71 32-79 0-13-38-53-43-45-2 2-52 114-111 247l-108 244 23 24c12 13 24 24 25 24s105-43 231-96zm-216 33c0-1 26-55 57-120l57-117 63 63 63 63-121 56c-66 31-120 56-119 55zm883 884c-11-5-33-23-47-41l-27-32v-65l23-34c12-18 38-44 56-56l34-23h24c13 0 37 7 54 15l30 16 19 32 20 32v25c0 14-4 31-9 39l-9 14-16-6-16-6v-78l-18-16-19-17h-22c-12 0-32 5-43 11l-20 11 67 68 67 67-31 22-31 22-32 4-33 5-21-9zm71-51 6-9-42-41-41-40-9 6c-5 3-9 18-9 34v29l16 15 15 16h29c16 0 32-4 35-10zm-269-141-35-31-7-35-7-35 16-33 16-33 34-26c18-14 47-29 64-32l30-6 30 15c37 19 52 37 62 74l9 30-14 33-14 32-15-12-15-13 6-34 6-34-17-19-18-20h-59l-34 34-34 34v61l17 16 16 17 29-4 28-5 12 15 12 14-19 14c-10 8-29 14-42 14h-22l-35-31z"/></g><g fill="#135876" transform="matrix(.1 0 0 -.1 0 300)"><path d="M2470 2715v-85h239l5-8 5-9-197-193c-108-106-342-338-519-514l-323-320-243 242-244 242h-78l-548-547L19 975l-6-24-6-24 9-26 9-26 36-19 35-19 34 16 35 17 495 495 495 495 245-245 246-245h68l276 274c151 150 399 395 550 544l275 270 5-91 5-92 88-3 87-3v531h-530v-85zm-366-116-7-11 41-41 41-41-31-11-32-10-19-33-20-33 12-39 11-38 40-36 40-36h87l27 26 26 27v38l10-6 11-7 15 13 15 12-118 119c-65 65-123 118-130 118-6 0-15-5-19-11zm147-168 39-39v-51l-16-15-15-16h-57l-30 25c-16 13-35 38-42 55l-12 30 16 25 16 25h62l39-39zm-283-106c-31-17-48-44-48-76v-21l-14 11-13 11-13-16-14-15 87-87 87-87 16 17 17 17-61 62-62 62v54l18 16c10 10 27 17 36 17h18l68-65 67-66 13 16 14 16-70 69-69 69-25 5-25 6-27-15zm275-657-553-553-280 280-280 280-565-565L0 545V0h3000v2022l-99 99c-54 54-101 99-103 99-1 0-252-249-555-552zm-930-286 178-178-26-24-26-24-179 179-179 179 21 23c12 13 24 23 27 23 4 0 86-80 184-178zm-178-163c132-55 243-104 248-108l7-7-25-24-24-23-77 32-77 33-74-74-74-74 35-76 35-76-25-23c-13-12-26-20-29-18-6 7-215 478-215 486s41 53 49 53c3 0 114-45 246-101zm-225 28c0-5 102-212 106-216 6-6 114 100 114 111 0 4-15 14-32 22-18 8-68 30-110 50-43 19-78 34-78 33zm870 885-34-17-19-33-19-32 6-36 7-35 39-39 38-38 31-7 32-7 36 19 37 19 19 37 19 36-7 31c-7 33-16 37-35 15l-12-15 6-16 6-15-12-22c-15-30-27-37-63-37h-31l-12 12-12 12 62 63 61 62-14 17c-13 16-68 44-86 44-4 0-24-8-43-18zm71-32c21 0 6-29-36-70l-44-43-11 29-11 28 10 24 11 23 22 9c13 5 29 7 36 4 8-2 18-4 23-4zm-238-135-31-13-16-24c-8-13-18-35-21-50l-7-27 22-38 21-38 34-24 34-23h69l24 16c41 27 62 99 39 135l-9 14-16-6-16-6 6-39 6-39-17-16-16-17h-65l-34 35-33 34v60l13 16 13 16 34-3 33-2 12 12 12 12-9 9c-6 5-19 11-30 14l-20 6-32-14z"/></g><g fill="#0a2645" transform="matrix(.1 0 0 -.1 0 300)"><path d="M2470 2715v-85h250v-8c0-4-234-241-520-527l-520-519-248 247-248 247h-25c-13 0-36-7-49-16-14-9-265-256-558-548L19 975l-5-23-6-22 12-31c15-36 37-49 82-49l33 1 510 504 510 504 240-239 240-239 26-6 27-7 28 16 29 15 530 530c291 292 533 531 536 531 4 0 10-40 13-90l8-90h168v520h-530v-85zm-358-117-12-12 41-42 40-41-30-6-30-6-17-25-16-26v-73l19-26c11-14 35-36 53-48l33-23h69l29 29 29 29v34l15-6 16-6 6 16 6 16-114 114c-62 63-116 114-119 114s-11-5-18-12zm143-163 35-36v-55l-14-19-13-18h-64l-35 34c-19 18-37 44-41 56l-5 23 16 25 16 25h69l36-35zm-309-131-26-27v-46l-15 5c-8 3-19 3-26-1l-11-7 88-89 88-88 13 11 14 11-62 63-62 63v60l13 15 12 16h52l67-66 66-65 14 17 13 16-72 69-72 69h-67l-27-26zm294-639-555-555-277 277-278 278-565-565L0 535V0h3000v2015l-103 103-102 102-555-555zm-926-281c97-96 176-179 176-183s-10-17-23-29l-23-21-184 184-184 184 19 21c10 11 24 20 31 20s91-79 188-176zm-169-165c132-55 243-104 248-108l7-7-28-27-29-28-75 34-76 35-71-72c-39-39-71-76-71-82s14-38 30-72c17-34 30-66 30-70 0-11-49-57-54-51-2 2-53 115-114 251l-110 248 20 25 19 25h17c9 0 125-45 257-101zm-225 18c0-2 22-50 48-106l48-101 57 58 57 57-98 44c-53 25-100 46-104 48-5 2-8 2-8 0zm832 873-32-32-1-21c-2-37 3-61 18-90l14-28 32-19 32-20h72l28 22 27 21 14 33 14 33-10 27-10 26-15-12-15-12 6-23 6-23-12-22-11-21-26-10-27-10-28 12c-15 6-28 14-28 17 0 4 28 35 62 69l62 63-21 21-21 22-49 4-49 5-32-32zm100-11 20-11-48-49-49-50-12 18c-7 9-13 25-13 35v19l25 24c26 27 46 31 77 14zm-273-160-29-31v-89l38-40 38-41 47-5 46-6 36 36 35 35v27c0 14-5 35-10 45l-10 19-13-5-13-5v-46l1-47-27-15-27-16-36 19-35 19-20 32c-11 18-20 40-20 49v17l25 25 25 24 26-6 26-7 9 14 8 13-12 8c-7 4-27 8-45 8h-34l-29-31z"/></g><g fill="#000202" transform="matrix(.1 0 0 -.1 0 300)"><path d="M2480 2715v-85h255l-527-527-528-528-242 242-243 241-21 6-21 6-20-7c-12-5-263-246-558-538L37 995l-12-28-12-29 5-24 4-24 26-20 25-20h62l505 505c278 278 508 505 512 505s114-108 246-240l239-240h84l545 543c300 298 550 544 555 545l9 4v-192h168v519h-518v-84zm-363-111c-12-12-8-20 29-58l37-38-14-9c-8-5-19-9-26-9-6 0-21-12-32-26l-21-27v-62l24-36 25-36 36-18 37-17 33 6 32 6 16 18c8 9 18 29 22 44l7 27 13-5 13-5 5 9 6 8-118 118-117 117-7-7zm113-147c19-12 43-37 53-55l20-33-12-25-11-24-25-12-26-11-34 16-35 17-20 32c-11 18-20 43-20 55v22l22 21c28 26 47 25 88-3zm-281-156-29-29v-54l-14 11-14 12-7-12-8-11 81-81 82-81 12 12 12 12-62 64-62 64v17c0 24 18 53 41 65l20 11 24-15c13-9 47-39 75-67l52-51 11 11 11 11-69 70-69 70h-58l-29-29zm-195-195-34-34v-32c0-37 13-65 48-102l26-28 33-6 33-6 31 12c16 7 39 24 49 38l20 25v78l-17-3-18-3 3-32 3-32-25-26-25-25h-21c-28 0-60 18-60 33 0 6 27 39 61 73l61 61-35 22-34 21h-65l-34-34zm105-9 11-14-45-46c-25-26-49-47-54-47-11 0-21 25-21 54v22l20 22 21 22h57l11-13zm-274-160-35-35v-67l19-31 19-31 37-23 36-22 37 5 37 6 22 26c13 14 25 36 28 48l6 23-11 28-10 28-15-12-14-12 11-23 11-24-17-25-16-26-24-6-24-6-30 16c-17 9-40 28-51 42l-21 27v57l21 21 20 20 32-3 32-3v30l-33 3-33 3-34-34z"/></g></g></svg>