<?xml version="1.0"?><svg version="1.2" baseProfile="tiny-ps" viewBox="0 0 300 300" xmlns="http://www.w3.org/2000/svg" xmlns:xlink="http://www.w3.org/1999/xlink"><title>AIcend</title><g><g fill="#f1fbfe" transform="matrix(.1 0 0 -.1 0 300)"><path d="M1521 2985c-234-41-468-155-607-295l-62-61-31-58-31-59v-110l25-31 26-30 36-12 36-11 67 4 67 5 90 42 90 41h54l15-35 14-34v-102l-26-51-26-52-57-59c-62-66-96-87-139-87-45 0-122-26-174-59l-47-30-20-38c-10-22-22-56-26-76l-7-38 17-44 17-45 35-29 35-29-20-38c-11-22-26-47-34-57l-13-17-79 23-80 22-8 30-7 30-21 15-21 16 11 119 12 120 15 10c9 6 25 18 35 28l18 17v56l171 82 171 82 25-20 26-20h24c13 0 37 7 53 15l28 15 11 33 11 33-11 32-11 33-29 14c-15 8-40 15-54 15h-27l-29-30-30-30-145 36-144 36v17c-1 24-23 49-54 61l-27 10-28-15c-31-16-41-33-41-71v-25l26-26 26-26-7-89-7-89-15-14c-8-8-18-15-23-15s-16-13-25-30l-16-30H382l-12 16-13 15-31-3-31-3-3-33-3-32 23-9 23-9 22 14 21 13 81 7 81 7 34-35 34-35-13-124c-7-68-14-125-14-126-1-2-8-3-16-3h-14l-23-30-22-30H372l-6 15-5 15h-24c-29 0-47-17-47-45 0-40 45-60 69-31l11 13 66 6 66 6 33-34 32-35h30l36-129 36-130-334-580L0 51V13l31-7c17-3 685-6 1484-6h1453l12 15c6 8 10 18 7 22-2 4-93 162-201 351l-198 342-15 68c-8 37-17 90-20 117l-5 50 31 45 31 45v44l-17 10-18 9 8 9c5 4 22 13 40 19 17 6 35 18 41 27l10 16-12 34c-7 18-12 47-12 63v30l19 21 20 21 71 27 72 27 39 38 39 37v59l-17 24c-9 14-47 58-84 98l-68 73-26 52c-14 29-30 78-37 108l-12 56 14 115 13 114-12 68c-22 125-79 237-196 383l-66 82-82 66-82 66-100 49-100 49-85 21-85 21-140 4-140 4-84-14zm-532-435c10-5 24-23 31-40l12-30-12-30c-15-36-37-50-78-50h-29l-23 25-23 25v60l23 25 23 25h29c16 0 37-4 47-10zm-84-314 120-31 3-20 3-20-78-39c-43-21-119-58-170-82l-92-43-21 17-22 17 11 95 10 95 17 10c10 6 24 17 33 26l16 17 25-6c14-3 79-19 145-36zm148-396 25-20 6-25 6-25-14-28c-9-15-15-22-16-16 0 14-38 54-51 54-5 0-19-16-31-36l-21-35-13 13c-8 7-16 28-20 45l-6 32 30 31 30 30h49l26-20zm192-240c34-16 71-40 83-53l23-24-37-63-36-62-19 31c-10 17-28 36-39 43l-21 13-39 68-40 69 6 10 6 10 27-7c14-3 53-19 86-35zm-149-50c38-62 40-70 20-70-8 0-25-13-39-30l-25-29-78 23c-43 13-79 27-81 32-1 5 13 34 31 64l32 55 35 6c19 4 43 6 53 5l20-1 32-55zm-360-61c38-12 71-23 73-25 4-4-107-201-118-208l-8-5-31 112-31 112 16 18c20 21 17 21 99-4zm265-79 37-10 6-28c3-15 8-36 11-48l6-20-133-121-134-121-27 5-28 5-8 17c-5 9-12 30-15 48l-7 31 81 140 82 140 47-14c25-8 62-19 82-24zm389-14c0-69-13-106-66-187l-44-66-56-47c-31-25-61-46-66-46h-10l6 15c3 9 37 68 74 133 38 64 86 147 106 185 21 37 42 67 47 67h9v-54zm-214-136h23l-91-157-92-158-175-125c-97-69-179-125-183-125-9 0-118 156-118 169 0 10 81 156 129 231l25 40 6-30 6-30-18-24-18-24v-66l22-15 22-16h63l18 20 18 20 1 40 1 40 124 111 125 111 44-6c25-3 55-6 68-6zm1492-948 2-262h-48l-6 42c-3 24-6 48-5 53 0 6 2 100 4 210 3 110 7 206 10 213l5 13 17-3 18-3 3-263zM542 2614l-22-15v-55l12-12 12-12h53l16 18c22 25 21 48-3 72s-38 25-68 4zm-248-209c-8-21 2-45 19-45 8 0 20 7 27 15l12 15-12 15c-7 8-19 15-27 15-7 0-16-7-19-15zm139-175c-26-11-43-40-43-74v-25l26-20c15-12 34-21 44-21s29 9 44 21l26 20v57l-17 20c-10 11-27 23-38 25l-20 6-22-9zm-297-125-5-14 15-16c9-8 17-15 19-15s10 7 19 15l15 16-5 14-6 15h-46l-6-15zm-71-349-16-23 10-26 10-26 26-7 26-6 19 17 20 18v53l-12 12-12 12H80l-15-24zm96-420-11-13 6-17 7-17 21 3 21 3 3 19 4 19-14 8c-18 12-24 11-37-5zm291-112-22-15v-55l12-12 12-12h55l15 22c21 30 20 44-4 68s-38 25-68 4z"/></g><g fill="#b7e7f7" transform="matrix(.1 0 0 -.1 0 300)"><path d="M1521 2985c-234-41-468-155-607-295l-62-61-31-58-31-59v-110l25-31 26-30 36-12 36-11 67 4 67 5 90 42 90 41h29c16 0 74 11 129 25l100 25 105 1 105 1 45-12c25-7 69-23 99-37l54-24 66-67 67-67 34-65c62-116 107-246 175-500 25-96 64-208 94-270l26-55 36-36 36-36 59-16 59-17-48 5-47 5-39 20-39 19-31 38c-51 62-108 181-181 380-109 300-149 385-232 491l-46 60-44 29c-24 16-62 37-86 46l-42 17h-158l-68-21c-38-12-90-32-116-45l-47-24-4 18-5 17-1-38-1-38-26-51-26-52-57-59c-62-66-96-87-139-87-45 0-122-26-174-59l-47-30-20-38c-10-22-22-56-26-76l-7-38 17-44 17-45 35-29 35-29-20-38c-11-22-26-47-34-57l-13-17-79 23-80 22-8 30-7 30-21 15-21 16 11 119 12 120 15 10c9 6 25 18 35 28l18 17v56l171 82 171 82 25-20 26-20h24c13 0 37 7 53 15l28 15 11 33 11 33-11 32-11 33-29 14c-15 8-40 15-54 15h-27l-29-30-30-30-145 36-144 36v17c-1 24-23 49-54 61l-27 10-28-15c-31-16-41-33-41-71v-25l26-26 26-26-7-89-7-89-15-14c-8-8-18-15-23-15s-16-13-25-30l-16-30H382l-12 16-13 15-31-3-31-3-3-33-3-32 23-9 23-9 22 14 21 13 81 7 81 7 34-35 34-35-13-124c-7-68-14-125-14-126-1-2-8-3-16-3h-14l-23-30-22-30H372l-6 15-5 15h-24c-29 0-47-17-47-45 0-40 45-60 69-31l11 13 66 6 66 6 33-34 32-35h30l36-129 36-130-334-580L0 51V13l31-7c17-3 685-6 1484-6h1453l12 15c6 8 10 18 7 22-2 4-93 162-201 351l-198 342-15 68c-8 37-17 90-20 117l-5 50 31 45 31 45v44l-17 10-18 9 8 9c5 4 22 13 40 19 17 6 35 18 41 27l10 16-12 34c-7 18-12 47-12 63v30l19 21 20 21 71 27 72 27 39 38 39 37v59l-17 24c-9 14-47 58-84 98l-68 73-26 52c-14 29-30 78-37 108l-12 56 14 115 13 114-12 68c-22 125-79 237-196 383l-66 82-82 66-82 66-100 49-100 49-85 21-85 21-140 4-140 4-84-14zm-532-435c10-5 24-23 31-40l12-30-12-30c-15-36-37-50-78-50h-29l-23 25-23 25v60l23 25 23 25h29c16 0 37-4 47-10zm-84-314 120-31 3-20 3-20-78-39c-43-21-119-58-170-82l-92-43-21 17-22 17 11 95 10 95 17 10c10 6 24 17 33 26l16 17 25-6c14-3 79-19 145-36zm148-396 25-20 6-25 6-25-14-28c-9-15-15-22-16-16 0 14-38 54-51 54-5 0-19-16-31-36l-21-35-13 13c-8 7-16 28-20 45l-6 32 30 31 30 30h49l26-20zm192-240c34-16 71-40 83-53l23-24-37-63-36-62-19 31c-10 17-28 36-39 43l-21 13-39 68-40 69 6 10 6 10 27-7c14-3 53-19 86-35zm-149-50c38-62 40-70 20-70-8 0-25-13-39-30l-25-29-78 23c-43 13-79 27-81 32-1 5 13 34 31 64l32 55 35 6c19 4 43 6 53 5l20-1 32-55zm-360-61c38-12 71-23 73-25 4-4-107-201-118-208l-8-5-31 112-31 112 16 18c20 21 17 21 99-4zm265-79 37-10 6-28c3-15 8-36 11-48l6-20-133-121-134-121-27 5-28 5-8 17c-5 9-12 30-15 48l-7 31 81 140 82 140 47-14c25-8 62-19 82-24zm389-14c0-69-13-106-66-187l-44-66-56-47c-31-25-61-46-66-46h-10l6 15c3 9 37 68 74 133 38 64 86 147 106 185 21 37 42 67 47 67h9v-54zm-214-136h23l-91-157-92-158-175-125c-97-69-178-126-181-128-4-1-32 36-64 82l-58 85 6 18c12 30 137 243 147 249l9 5 1-28c1-15 1-31 1-34-1-4 22-15 51-26l52-20 10 18c5 11 64 67 129 125l120 106 44-6c25-3 55-6 68-6zm1492-948 2-262h-50v74l-15-20c-8-12-30-29-49-38l-34-16h-83l-32 14-32 13-32 36-32 37-7 36-7 36 7 45 6 46 26 34 25 33 39 20 39 20h76l41-19 42-19 11-19 10-18 1 111c0 61 3 114 7 118s14 5 23 4l15-3 3-263zm-1384 77c37-25 46-44 24-52l-13-4-28 23-29 24h-51l-52-1-22-12c-12-7-31-24-43-39l-21-27-6-49-5-49 17-38 18-37 31-19 31-19h103l30 25 30 25 13-16 13-16-28-23c-31-25-67-35-124-35h-36l-40 20-41 20-24 35-23 35-5 44c-3 25-2 61 1 80l7 35 26 32 27 32 41 19 40 19 52-4 52-4 35-24zm366 9 45-23 22-40 23-40v-75h-310v-7c0-4 9-25 20-48l20-40 29-18 29-17h107l32 19 32 20 11-14 11-13-31-22-30-21-54-6-53-6-36 12c-20 7-48 22-63 33l-27 21-18 41-19 41v80l19 40c20 43 40 64 86 88l30 16 40 1h41l44-22zm240-8v-30h9c6 0 13 5 16 10 4 6 24 19 45 30l39 20h88l34-23 34-22 17-35 18-35V50h-40v231l-14 33-14 33-23 17-23 16h-87l-29-15-30-15-15-30-15-29V50h-40v370h30v-30zm517-28-28-17-19-41c-24-49-25-81-4-134l16-40 33-20 32-20h103l38 34 37 34v154l-37 34-38 34h-52l-53-1-28-17zm-867 20c-14-2-40-15-57-28l-33-25-8-32c-5-18-7-35-5-39l4-8h259v21c0 28-27 72-54 89s-74 27-106 22zM542 2614l-22-15v-55l12-12 12-12h53l16 18c22 25 21 48-3 72s-38 25-68 4zm-248-209c-8-21 2-45 19-45 8 0 20 7 27 15l12 15-12 15c-7 8-19 15-27 15-7 0-16-7-19-15zm139-175c-26-11-43-40-43-74v-25l26-20c15-12 34-21 44-21s29 9 44 21l26 20v57l-17 20c-10 11-27 23-38 25l-20 6-22-9zm-297-125-5-14 15-16c9-8 17-15 19-15s10 7 19 15l15 16-5 14-6 15h-46l-6-15zm-71-349-16-23 10-26 10-26 26-7 26-6 19 17 20 18v53l-12 12-12 12H80l-15-24zm387-532-23-16 43-34 43-34 13 17c17 24 15 40-8 63-24 24-38 25-68 4z"/></g><g fill="#67d4f7" transform="matrix(.1 0 0 -.1 0 300)"><path d="M1521 2985c-234-41-468-155-607-295l-62-61-31-58-31-59v-110l25-31 26-30 36-12 36-11 67 4 67 5 90 42c49 22 99 41 111 41s66 12 119 27l98 26 125 1 125 1 60-20 59-19 60-41 61-40 46-58c89-111 140-231 215-507 73-265 114-373 169-438l26-31 44-17 45-17 58 6 57 6-30-14-30-14-48-1h-48l-32 14c-98 42-167 159-286 492-70 194-114 296-167 381l-44 71-54 50-54 49-48 22-47 22-66 6-66 5-68-16c-38-9-102-31-143-50l-74-35v-16c0-8-12-39-26-67l-26-52-57-59c-62-66-96-87-139-87-45 0-122-26-174-59l-47-30-20-38c-10-22-22-56-26-76l-7-38 17-44 17-45 35-29 36-29-25-44c-14-24-55-97-92-163-38-66-74-127-80-135-7-8-22-33-33-55S498 914 321 608L0 51V13l31-7c17-3 685-6 1484-6h1453l12 15c6 8 10 18 7 22-2 4-93 162-201 351l-198 342-15 68c-8 37-17 90-20 117l-5 50 31 45 31 45v44l-17 10-18 9 8 9c5 4 22 13 40 19 17 6 35 18 41 27l10 16-12 34c-7 18-12 47-12 63v30l19 21 20 21 71 27 72 27 39 38 39 37v59l-17 24c-9 14-47 58-84 98l-68 73-26 52c-14 29-30 78-37 109l-12 56 14 112 13 112-10 7c-6 3-37 53-69 110l-59 103-45 48-45 48-45 22-45 23-142 8-141 9-59 21-58 22-91 92-90 92-47 18-46 17-69-4-68-3-155-78c-85-42-167-79-184-82l-30-6 37 20c21 10 85 49 142 86l105 67 68 24 68 24h82l41-14 41-15 93-67 93-67 64-29 64-29 123-20c169-27 239-53 302-113l34-31 55-93c30-51 57-91 60-88 20 20-86 213-182 333l-66 82-82 66-82 66-100 49-100 49-85 21-85 21-140 4-140 4-84-14zm-338-342c-7-2-21-2-30 0l-18 5h60l-12-5zm-194-93c10-5 24-23 31-40l12-30-12-30c-15-36-37-50-78-50h-29l-23 25-23 25v60l23 25 23 25h29c16 0 37-4 47-10zm-85-179c-3-3-15 6-27 18l-22 24 27-19c14-10 24-21 22-23zm126 24c0-2-13-11-30-20l-29-15-28 1-28 1 35 7c19 4 44 12 55 19 23 13 25 14 25 7zm23-555 25-20 6-25 6-25-14-28c-9-15-15-22-16-16 0 14-38 54-51 54-5 0-19-16-31-36l-21-35-13 13c-8 7-16 28-20 45l-6 32 30 31 30 30h49l26-20zm-28-180 6-10h-15c-9 0-16 5-16 10 0 6 4 10 9 10 6 0 13-4 16-10zm331-21c24-6 44-13 44-16 0-14-42-83-51-83h-10l6-9 6-10-43-70-42-70-23 37c-12 20-23 43-23 50 0 6-4 12-9 12s-28 32-51 72l-41 71 8 8c13 12 44 17 116 18l68 1 45-11zm-288-41c5-7 33-58 62-112 29-55 62-116 74-135l22-36-17-33c-10-19-57-102-105-185l-87-152-176-125c-97-69-178-126-181-128-4-1-32 36-64 82l-58 85 6 18c4 10 37 68 74 130s76 130 87 151 53 95 94 165l73 127 11-7 10-6-7 11-7 12h20l-4 13-4 12 33 55 32 55 35 6c55 10 66 10 77-3zm467-98c22-42 52-138 79-255 14-60 32-131 40-157l14-46-23-33-24-32-12 29c-6 16-35 100-65 187-54 159-80 218-117 270l-19 29 11 26c7 15 20 38 28 51l16 25 29-35c16-18 36-45 43-59zm-145-104c0-69-13-106-66-187l-44-66-56-47c-31-25-61-46-66-46h-10l6 15c3 9 37 68 74 133 38 64 86 147 106 185 21 37 42 67 47 67h9v-54zM2668 312l2-262h-50v62l-31-26c-38-33-66-40-133-34l-53 4-32 23-31 23-20 38-20 39v116l23 40 22 40 40 22 40 23h47c55 0 94-13 126-42l22-21v105c0 108 3 121 30 116l15-3 3-263zm-1405 94c18-7 40-22 50-33l18-20-15-12-14-12-37 26-38 25h-82l-32-20c-37-22-58-53-68-97l-6-31 10-39 11-39 30-29 30-28 52-5 53-4 36 25 36 24 17-9 17-10-18-20c-10-11-30-26-45-34l-27-14h-112l-39 20-38 20-20 27c-11 16-25 48-32 72l-12 44 12 45c6 25 21 59 32 75l21 29 41 19 41 19h96l32-14zm380 0 33-13 27-32 26-32 11-37c5-20 10-45 10-54v-18h-310v-48l25-30c13-16 38-35 55-42l30-13 50 5 50 5 20 18 19 17 16-6 17-6-4-13c-3-6-19-22-38-34l-33-23h-121l-40 20-41 20-25 36-24 36-4 62-4 61 24 45 25 45 39 22 39 23h96l32-14zm257-18v-31l23 20c12 11 32 26 44 32l22 11h106l32-20 32-19 16-30 15-30V50h-50v261l-10 20c-6 10-24 26-40 34l-29 15h-66l-32-20-32-19-16-30-15-30V50h-50v370h50v-32zm513-28-32-19-16-32-17-32v-41l-1-42 14-29 14-29 34-23 34-23h84l34 23c18 12 40 34 47 47l13 25-4 62-3 62-19 22c-26 28-75 49-117 49h-33l-32-20zm-909 4-30-15-17-28c-9-16-17-36-17-45v-16h260v13c0 6-9 26-20 44l-19 32-30 16-30 15h-33c-18 0-47-7-64-16zM552 2595c-7-14-12-33-12-41v-15l-12 7-13 8 14-17 13-17h55l16 18 17 18-5 23c-6 30-10 34-39 38l-23 3-11-25zm83-217c-11-6-26-18-32-26l-13-16v-57l26-26 26-26-7-87c-8-95-10-102-43-119l-22-12 11-12c6-7 25-36 44-66l32-54 22 22 21 21v56l171 82 171 82 25-20 26-20h24c13 0 37 7 52 15l29 14 11 33 11 32-11 33-11 33-28 15c-16 8-41 15-55 15h-27l-29-30-30-30-145 36-144 36v17c0 18-35 61-50 61-4 0-14 2-22 5-7 2-22 0-33-7zm270-142 120-31 3-21 3-20-167-81-168-81-24 11-24 11 6 66c4 36 9 82 12 103l6 37 29 15c16 9 29 20 29 25v10l28-6c15-4 81-21 147-38z"/></g><g fill="#2cc2f2" transform="matrix(.1 0 0 -.1 0 300)"><path d="M1521 2985c-201-36-433-138-556-246l-38-34 29-6c16-4 70-7 119-7l90-1 50 17c28 10 95 46 149 81 115 74 189 108 260 122l51 10 48-12 48-11 97-70c53-38 125-82 158-99l62-29 73-14c41-8 106-19 146-26l71-11 59-28c32-15 74-41 93-57l35-29-50 65c-104 138-230 241-378 310l-84 40-84 20-84 21-140 4-140 4-84-14zm59-176c-19-5-104-44-188-87l-154-77-111-3-112-4-63 15-62 14-26-30c-14-16-36-52-50-78l-24-48v-109l25-31 26-30 36-12 36-11 67 4 67 5 90 42c49 22 98 41 109 41 10 0 57 12 104 26l85 25 120 6 120 6 55-12 55-12 101-50 100-50 60-48 60-48 42-57c90-119 153-265 213-493 37-144 59-202 94-247l28-37 41-21 41-21h60c33 0 82 3 109 7l49 6 43 25c23 14 52 37 63 51l21 27v53l-17 24c-9 14-47 58-84 98l-68 73-26 52c-14 29-30 78-37 109l-12 57 13 104 13 104-30 44c-16 24-51 82-78 128l-49 83-51 47-51 47-41 12-41 12-140 9-140 9-57 26-57 26-81 85-81 85-53 20-52 20-38-1c-20 0-53-5-72-10zm-591-259c10-5 24-23 31-40l12-30-12-30c-15-36-37-50-78-50h-29l-23 25-23 25v60l23 25 23 25h29c16 0 37-4 47-10zm62-122c-5-14-22-35-37-47l-27-21h-89l-29 29-29 29v37l19-32 20-31 23-8c12-4 36-7 51-6l29 1 24 16c14 9 30 27 36 41 14 31 22 25 9-8zm529-65c-57-10-139-36-202-65l-68-31v-14c0-7-12-37-26-65l-26-52-57-59c-66-70-88-82-161-90l-55-7-63-31-63-31-10-25c-5-13-9-42-9-64v-40l19-37 19-37 24-14 23-13-12 13c-7 7-13 19-13 27v15l21-26 20-26-49-88c-112-201-185-329-192-338-4-5-20-32-36-60-15-27-171-298-346-602L0 51V13l31-7c17-3 685-6 1484-6h1453l12 15c6 8 10 18 7 22-2 4-92 161-199 348-330 576-371 648-406 715-19 36-75 135-124 220-50 85-124 214-166 285-41 72-98 171-127 220-49 84-62 107-116 203-102 181-113 186-170 79-17-34-61-113-97-175l-65-113-31 29c-17 16-45 38-62 50l-32 22-6 25-6 25 10 68 11 67 24 42 25 41 37 23 38 24 75-1h75l50-23c28-13 69-36 91-52 92-63 221-216 281-332 42-84 36-44-12 79-101 256-205 393-332 438-44 15-137 26-173 19zm210-380c25-43 79-138 122-211s78-135 78-137 32-56 70-120c39-64 70-118 70-122 0-3 33-61 74-129l75-123-22 9c-12 5-47 15-77 24-30 8-116 33-190 55-75 23-141 41-147 41s-20-11-31-25c-23-29-32-32-32-9 0 32-60 253-86 319-15 38-50 102-77 142l-49 74 6 16c12 29 159 273 166 273 4 0 26-35 50-77zm-737-143 25-20 6-25 6-25-14-28c-9-15-15-22-16-16 0 14-38 54-51 54-5 0-19-16-31-36l-21-35-13 13c-8 7-16 28-20 45l-6 32 30 31 30 30h49l26-20zm47-130c-6-12-14-20-17-17-2 3 1 14 8 26 17 26 24 19 9-9zm295-21c17-7 32-14 34-16 4-2-112-213-144-261l-22-33-55 93c-31 51-69 119-87 150l-31 57 42 11c24 6 48 13 53 15 6 3 48 3 95 1l86-4 29-13zm-352-51c10-18 55-98 101-178l84-145-25-45c-14-25-61-108-106-185l-81-140-175-125c-97-69-178-126-181-128-4-1-32 36-64 82l-58 85 6 18c4 10 37 68 74 130s76 130 87 151 54 95 95 166c41 70 91 156 110 191 19 34 40 69 46 76 6 8 19 29 28 47l17 32h25l17-32zm475-31c11-12 33-48 47-80l27-58 29-157c16-86 35-179 42-207l14-50-25-37c-14-21-28-38-32-38-9 0-11 4-85 221-57 167-74 206-112 256l-24 33 41 70c22 38 44 70 49 70 4 0 17-10 29-23zm-128-211c0-69-13-106-66-187l-44-66-56-47c-31-25-61-46-66-46h-10l6 15c3 9 37 68 74 133 38 64 86 147 106 185 21 37 42 67 47 67h9v-54zM2668 312l2-262h-50v62l-31-26c-38-33-66-40-133-34l-53 4-32 23-31 23-20 38-20 39v116l23 40 22 40 40 22 40 23h47c55 0 94-13 126-42l22-21v105c0 108 3 121 30 116l15-3 3-263zm-1405 94c18-7 40-22 50-33l18-20-15-12-15-12-29 21-30 22-44 5-45 5-30-16c-41-21-69-58-77-101l-7-35 10-38 11-38 30-29 30-28 52-5 53-4 36 25 36 24 17-9 17-10-18-20c-10-11-30-26-45-34l-27-14h-112l-39 20-38 20-20 27c-11 16-25 48-32 72l-12 44 12 45c6 25 21 59 32 75l21 29 41 19 41 19h96l32-14zm380 0 33-13 27-32 26-32 11-37c5-20 10-45 10-54v-18h-310v-48l25-30c13-16 38-35 55-42l30-13 50 5 50 5 20 18 19 17 16-6 17-6-4-13c-3-6-19-22-38-34l-33-23h-121l-40 20-41 20-25 36-24 36-4 62-4 61 24 45 25 45 39 22 39 23h96l32-14zm257-18v-31l23 20c12 11 32 26 44 32l22 11h106l32-20 32-19 16-30 15-30V50h-50v261l-10 20c-6 10-24 26-40 34l-29 15h-66l-32-20-32-19-16-30-15-30V50h-50v370h50v-32zm513-28-32-19-16-32-17-32v-41l-1-42 14-29 14-29 34-23 34-23h84l34 23c18 12 40 34 47 47l13 25-4 62-3 62-19 22c-26 28-75 49-117 49h-33l-32-20zm-909 4-30-15-17-28c-9-16-17-36-17-45v-16h260v13c0 6-9 26-20 44l-19 32-30 16-30 15h-33c-18 0-47-7-64-16zm1142 801-20-15h11c6 0 16 7 23 15 16 19 11 19-14 0z"/></g><g fill="#3f616d" transform="matrix(.1 0 0 -.1 0 300)"><path d="M1677 2093c-184-318-261-452-312-543-32-58-68-120-80-138l-22-33-55 93c-31 51-70 120-88 153-71 131-97 164-120 150-7-5-70-108-160-265-20-36-63-110-95-165-31-55-69-120-83-145S493 907 318 603L0 51V12l31-6c17-3 685-6 1484-6h1453l12 15 12 15-99 172c-55 95-148 259-208 363-60 105-292 507-516 895l-406 705-20 3-20 3-46-78zm183-220c63-109 183-317 267-462 84-146 151-266 149-268-1-2-101 27-221 64l-219 66-25-33c-14-18-107-148-207-288-99-141-185-257-190-259l-10-3-50 72c-27 40-84 124-127 186l-78 113 79 137c44 75 95 164 115 197 19 33 115 198 213 368 99 169 181 307 184 307 4 0 57-89 120-197zm-805-255c10-18 54-94 96-168l77-135-30-55c-73-132-182-315-190-318-4-2-8-8-8-13 0-10-239-351-252-359-3-3-52 60-108 140L539 855l5 17c2 9 35 69 72 133 38 63 78 132 89 153s54 95 95 166c41 70 88 151 103 179 16 29 39 68 51 87 13 19 31 48 41 64l18 29 11-16c6-8 20-30 31-49zM2668 312l2-262h-50v62l-31-26c-38-33-66-40-133-34l-53 4-32 23-31 23-20 38-20 39v116l23 40 22 40 40 22 40 23h47c55 0 94-13 126-42l22-21v105c0 108 3 121 30 116l15-3 3-263zm-2048 1C677 187 727 77 732 67l9-17h-51l-29 65-30 65H350l-29-65-30-65h-49l111 245 112 245h52l103-227zm260-18V50h-50v490h50V295zm383 111c18-7 40-22 50-33l18-20-15-12-15-12-29 21-30 22-44 5-45 5-30-16c-41-21-69-58-77-101l-7-35 10-38 11-38 30-29 30-28 52-5 53-4 36 25 36 24 17-9 17-10-18-20c-10-11-30-26-45-34l-27-14h-112l-39 20-38 20-20 27c-11 16-25 48-32 72l-12 44 12 45c6 25 21 59 32 75l21 29 41 19 41 19h96l32-14zm380 0 33-13 27-32 26-32 11-37c5-20 10-45 10-54v-18h-310v-48l25-30c13-16 38-35 55-42l30-13 50 5 50 5 20 18 19 17 16-6 17-6-4-13c-3-6-19-22-38-34l-33-23h-121l-40 20-41 20-25 36-24 36-4 62-4 61 24 45 25 45 39 22 39 23h96l32-14zm257-18v-31l23 20c12 11 32 26 44 32l22 11h106l32-20 32-19 16-30 15-30V50h-50v261l-10 20c-6 10-24 26-40 34l-29 15h-66l-32-20-32-19-16-30-15-30V50h-50v370h50v-32zm513-28-32-19-16-32-17-32v-41l-1-42 14-29 14-29 34-23 34-23h84l34 23c18 12 40 34 47 47l13 25-4 62-3 62-19 22c-26 28-75 49-117 49h-33l-32-20zm-1984-1c-30-67-55-126-57-130l-4-9h244l-5 13c-27 68-111 247-117 247-4 0-31-55-61-121zm1075 5-30-15-17-28c-9-16-17-36-17-45v-16h260v13c0 6-9 26-20 44l-19 32-30 16-30 15h-33c-18 0-47-7-64-16z"/></g><g fill="#070b0b" transform="matrix(.1 0 0 -.1 0 300)"><path d="M1728 2157c-9-7-76-115-148-242-73-126-170-293-215-370s-87-148-92-159l-10-19-43 79c-24 44-69 122-100 174-30 52-61 107-69 122s-21 30-29 33l-15 6-9-9c-5-5-28-42-52-83-81-140-228-394-251-434-12-22-174-302-359-622L0 51V12l38-6c20-3 688-5 1485-4l1448 2 10 12 10 13-12 23c-11 21-113 197-589 1018-100 173-268 464-372 645-288 499-264 463-290 442zm68-164c28-49 122-212 209-363 274-474 285-494 282-496-1-1-103 28-227 66l-225 69-6-7c-3-4-97-136-209-294-111-159-205-288-209-288s-65 85-135 189l-129 189 80 139c45 76 126 217 181 313 54 96 132 231 172 300s91 158 114 197c22 40 43 73 46 73s28-39 56-87zm-726-395c26-46 73-128 105-182l58-100-15-25c-8-15-62-107-119-206L995 906 875 735c-66-93-125-170-130-169-11 1-204 284-205 299 0 6 34 68 75 139s75 130 75 132 17 32 38 66c21 35 87 149 147 253 133 234 135 238 142 231 3-3 27-42 53-88zM2668 312l2-262h-50v49l-36-24c-20-13-52-28-72-31l-36-7-44 12c-24 6-54 19-67 29-32 23-63 80-71 128l-6 40 11 41 12 42 25 31c31 36 66 56 115 65l36 7 40-11 40-11 27-25 26-24v103c0 106 3 119 30 114l15-3 3-263zm-2039-7C690 171 740 59 740 55c0-3-13-5-28-5h-29l-28 65-27 65H353l-28-65-27-65h-60l5 13c18 47 212 464 220 475l9 12h46l111-245zm251-5V50h-60v487l7 6c3 4 17 7 30 7h23V300zm407 99c17-11 34-27 38-36l6-17-17-13-17-12-28 23-28 24-34 6-35 7-41-17-41-16-20-33-20-32v-94l16-30 15-31 46-20 45-20 34 6 33 7 28 23 29 24 19-14 20-15-11-17c-6-9-30-27-54-39l-44-23h-37c-20 0-51 5-70 11l-34 12-37 35-38 36-11 34-11 34 4 53 5 54 27 35c32 43 65 66 109 77l32 8 45-6 45-5 32-19zm384-3 37-25 21-45 22-45-3-33-3-33-152-3c-84-1-153-5-153-8s7-21 16-40l16-33 45-22 44-21 41 6 41 7 27 19 27 19 17-18 16-18-19-17c-44-40-125-55-193-36l-37 11-32 26-32 27-18 41c-21 46-23 84-8 138l10 39 32 34 32 35 40 15 40 14 45-5 44-5 37-24zm458 8c16-9 37-31 47-48l19-31 3-137 4-138h-62v239l-10 25c-5 14-20 32-34 41l-25 17-34 1c-18 0-48-5-66-12l-32-14-17-31-16-31-4-117-4-118h-48v370h50v-53l19 17c11 10 37 24 58 32l38 14 43-5c24-3 56-12 71-21zm301-42-35-17-22-34-23-34v-79l22-39 22-39 43-16 44-17 38 12 39 11 31 35 31 36v108l-31 35-31 36-36 10c-49 13-51 13-92-8zm-1996-4c-27-61-50-115-52-120l-4-8h111c61 0 111 2 111 5 0 13-103 235-109 235-4 0-30-50-57-112zm1076 5-35-18-20-37c-11-20-17-39-14-43 4-3 63-4 133-3l126 3-18 34c-21 43-57 70-102 77l-35 5-35-18z"/></g></g></svg>